<svg id="Layer_1" data-name="Layer 1" xmlns="http://www.w3.org/2000/svg" viewBox="0 0 117 107"><defs><style>.cls-1{fill:#fff;stroke:#000;stroke-miterlimit:10;stroke-width:0.76px;}</style></defs><title>cart-icon</title><path class="cls-1" d="M92.59,27.94a43.1,43.1,0,0,0-4.36-6.89,3.25,3.25,0,0,0-.23-.29,1,1,0,0,1,0,.29c0,3.13-15.74,5.67-35.16,5.67s-35.17-2.54-35.17-5.67a1,1,0,0,1,.05-.3A44.65,44.65,0,0,0,37.69,90.24c4.76.25,9.87.38,15.19.38s10.43-.13,15.18-.38A44.51,44.51,0,0,0,85.85,78.33c.32-.35.63-.7.92-1.06L87,77a25,25,0,0,0,5.58-49Zm-.8,42.17.37-.68c.18-.33.37-.67.54-1a44.83,44.83,0,0,0,3-32.67,18.91,18.91,0,0,1-3.92,34.36Z"/><path class="cls-1" d="M88,21.05c0,3.13-15.74,5.67-35.16,5.67s-35.17-2.54-35.17-5.67a1,1,0,0,1,.05-.3h0c.23-.3.47-.59.7-.87a8.4,8.4,0,0,1,2.33-1.14c5.5-2,17.8-3.36,32.09-3.36,14,0,26,1.31,31.71,3.22a9.54,9.54,0,0,1,2.69,1.27c.25.29.48.58.72.88h0A1,1,0,0,1,88,21.05Z"/></svg>