<svg id="Layer_1" data-name="Layer 1" xmlns="http://www.w3.org/2000/svg" viewBox="0 0 1467 246"><title>this-tea</title><path d="M357.5,219.47c0,1.14-.56,1.7-2,1.7-8,0-22.72-2-37.49-2-14.2,0-32.09,2-35.22,2-1.7,0-2-.56-2-1.7,0-1.7,1.42-2.27,5.12-4.54,6.24-4.83,6.81-8.52,6.81-30.68V135.12c0-15.87-3.69-21-13.35-21-11.92,0-24.7,17.8-24.7,52.54,0,33.22.37,44,11.07,48.84,4.06,1.82,5.4,1.14,5.4,3.7,0,1.42-.85,2-2.27,2-5.4,0-23.86-2-39.48-2-16.19,0-36.92,2-39.76,2-1.42,0-2.27-.56-2.27-1.7,0-2.27,1.42-2,4.71-3.61,10.63-5.19,12.05-16.27,12.05-71.65V88.72c0-22-.49-29.2-5.12-35-5.59-7-17.58-8.66-29.67-8.66s-16.9,2.84-19.57,7.32-4.15,14-4.15,86.68l0,38.57c0,29.76,1,34.05,11.33,37.54,4.83,2,6,3.12,6,4.37,0,1-.57,1.59-2,1.59-2,0-33.8-1.7-45.73-2-11.92.28-43.73,2-45.72,2-1.42,0-2-.56-2-1.59,0-1.25,1.14-2.38,6-4.37,10.33-3.47,11.3-7.75,11.33-37.18l0-38.93c0-72.7-1.42-82.08-4.15-86.68s-7.5-7.32-15.16-7.32c-14.21,0-23.86,6.53-38.06,54.81-1.14,3.69-1.7,4.26-3.12,4.26-1.14,0-1.71-.86-1.71-2.56,0-2.27.85-20.45.85-46,0-12-3.12-14-3.12-16.75a1.93,1.93,0,0,1,2-2c4.26,0,13.06,3.41,92.86,3.41,70.58,0,127.38-5.4,139.45-5.4,1.42,0,2,.29,2,1.42,0,3.69-2,30.11-2,69.86v28.79c5.89-19.44,19.06-30.49,41.18-30.49,33.51,0,47.42,15.34,47.42,48.28v31.52c0,22.44,1.14,25.56,9.66,31C355.8,217.2,357.5,217.77,357.5,219.47Z"/><path d="M371.42,219.75c0-1.7,1.42-2,5.4-4.26,10.22-5.11,11.08-14.76,11.08-45.15V159.55c0-25.28-2.56-36.36-10.8-41.18-4.26-2.28-5.68-2.56-5.68-4.55,0-1.42.86-1.7,3.7-1.7,51.11-1.14,61.91-8.81,66.45-8.81a2,2,0,0,1,2.27,2c0,2.27-2,4.26-3.41,10.23-1.7,7.1-2,21.3-2,41.18v10.5c0,32.66,2.84,43.17,15.05,49.42,2.27,1.14,3.41,1.42,3.41,2.84a2,2,0,0,1-2,2c-3.13,0-25-2-41.47-2s-37.2,2-40,2C372.28,221.46,371.42,220.89,371.42,219.75Zm9.37-155.06c0-16.47,12.5-27.26,29.82-27.26,18.18,0,30.11,10.79,30.11,27.26S428.51,92,410.61,92C393.57,92,380.79,81.45,380.79,64.69Z"/><path d="M487.58,214.07c-2.84,0-3.69,1.14-4.83,5.68-.28,2-1.14,2.56-2.27,2.56s-2-.85-2-2.56c-.28-1.42.28-7.1.28-13.06,0-12.21-2.84-24.71-2.84-28.12,0-1.7.86-2,1.71-2,1.13,0,1.82.68,2.55,2.84,9.09,27,30.68,39.76,54.25,39.76,14.77,0,22.72-6.25,22.72-16.19,0-8.24-3.13-13.92-23.86-18.75L514,179.71c-26.41-6.53-38.62-15.62-38.62-36.92,0-25.56,25.84-38.34,55.94-38.34,23.58,0,40.33,9.66,44.59,9.66,2.84,0,3.69-2.84,4.55-6.54.28-2,1.13-2.55,2.27-2.55s2.27.85,2.27,2.84c0,22.43,5.68,32.94,5.68,35.21a1.51,1.51,0,0,1-1.7,1.71c-1.42,0-2.16-.74-3.13-2.56-11.93-22.43-32.94-33.79-52-33.79-15.34,0-22.44,5.39-22.44,12.78,0,8.8,7.42,12.38,20.74,15.33l24.42,5.4c27,6,40.33,17,40.33,37.2,0,31-35.5,44.31-62.2,44.31C513.14,223.45,492.69,214.07,487.58,214.07Z"/><path d="M671.89,219.75c0-1.7,1.42-2,5.4-4.26,10.22-5.11,11.07-14.76,11.07-45.15V159.55c0-25.28-2.55-36.36-10.79-41.18-4.26-2.28-5.68-2.56-5.68-4.55,0-1.42.85-1.7,3.69-1.7,51.12-1.14,61.91-8.81,66.46-8.81a2,2,0,0,1,2.27,2c0,2.27-2,4.26-3.41,10.23-1.7,7.1-2,21.3-2,41.18v10.5c0,32.66,2.84,43.17,15.06,49.42,2.27,1.14,3.4,1.42,3.4,2.84a1.94,1.94,0,0,1-2,2c-3.13,0-25-2-41.47-2s-37.2,2-40,2C672.74,221.46,671.89,220.89,671.89,219.75Zm9.37-155.06c0-16.47,12.5-27.26,29.82-27.26,18.18,0,30.11,10.79,30.11,27.26S729,92,711.08,92C694,92,681.26,81.45,681.26,64.69Z"/><path d="M788.05,214.07c-2.84,0-3.7,1.14-4.83,5.68-.29,2-1.14,2.56-2.27,2.56s-2-.85-2-2.56c-.29-1.42.28-7.1.28-13.06,0-12.21-2.84-24.71-2.84-28.12,0-1.7.85-2,1.71-2,1.13,0,1.81.68,2.55,2.84,9.09,27,30.67,39.76,54.25,39.76,14.76,0,22.72-6.25,22.72-16.19,0-8.24-3.13-13.92-23.86-18.75l-19.31-4.54c-26.41-6.53-38.63-15.62-38.63-36.92,0-25.56,25.85-38.34,55.95-38.34,23.57,0,40.33,9.66,44.59,9.66,2.84,0,3.69-2.84,4.54-6.54.29-2,1.14-2.55,2.28-2.55s2.27.85,2.27,2.84c0,22.43,5.68,32.94,5.68,35.21a1.51,1.51,0,0,1-1.71,1.71c-1.42,0-2.16-.74-3.12-2.56-11.93-22.43-32.94-33.79-52-33.79-15.34,0-22.44,5.39-22.44,12.78,0,8.8,7.41,12.38,20.73,15.33l24.43,5.4c27,6,40.32,17,40.32,37.2,0,31-35.49,44.31-62.19,44.31C813.61,223.45,793.16,214.07,788.05,214.07Z"/><path d="M1019.79,219.58c0-1.25,1.13-2.38,6-4.37,10.34-3.47,11.3-7.75,11.33-37.18l0-38.93c0-72.7-1.42-82.08-4.15-86.68s-7.49-7.32-15.16-7.32c-14.2,0-23.86,6.53-38.06,54.81-1.13,3.69-1.7,4.26-3.12,4.26-1.14,0-1.71-.86-1.71-2.56,0-2.27.86-20.45.86-46,0-12-3.13-14-3.13-16.75a1.93,1.93,0,0,1,2-2c4.26,0,13.06,3.41,92.87,3.41s88.6-3.41,92.86-3.41a1.93,1.93,0,0,1,2,2c0,2.78-3.12,4.74-3.12,16.75,0,25.56.85,43.74.85,46,0,1.7-.57,2.56-1.7,2.56-1.42,0-2-.57-3.13-4.26-14.2-48.28-23.85-54.81-38-54.81-7.67,0-12.5,2.84-15.17,7.32s-4.14,14-4.14,86.68l0,38.57c0,29.76,1,34.05,11.34,37.54,4.82,2,6,3.12,6,4.37,0,1-.57,1.59-2,1.59-2,0-33.79-1.7-45.72-2-11.93.28-43.74,2-45.73,2C1020.35,221.17,1019.79,220.61,1019.79,219.58Z"/><path d="M1283.05,186.24a14.16,14.16,0,0,1-.85,4c-6.82,19.31-29,33.23-59.36,33.23-44.58,0-73.55-24.71-73.55-60.21,0-36.07,30.1-58.79,71.57-58.79,36.06,0,63,18.18,63,45.44,0,7.67-3.4,13.06-11.07,13.06l-70.13-.24c.53,33.64,9.88,48.52,34.06,48.52,19.31,0,34.93-8.23,41.75-23.85.85-2,1.13-2.84,2.55-2.84C1282.2,184.54,1283.05,185.11,1283.05,186.24Zm-80.36-29.41,28.39-.41c6,0,6.53-.57,6.53-12.21,0-27.86-5.68-35.78-16.47-35.78C1207.26,108.43,1202.89,120.4,1202.69,156.83Z"/><path d="M1454,197.32c0,15.05-5.68,26.13-34.37,26.13-22.66,0-35.53-7.73-39.53-27.78-5.82,19.41-22.16,27.78-45.1,27.78-21,0-35.5-8.24-35.5-26.7,0-28.2,37.66-35.12,79.24-38.73V134.55c0-20.44-8-25.55-20.73-25.55-11.08,0-16.76,4.82-16.76,10.22,0,6.25,5.68,10.79,5.68,18.46,0,8.8-8.23,15.9-20.73,15.9-12.78,0-20.73-7.1-20.73-18.74,0-15.34,16.19-30.39,59.64-30.39,40.89,0,69.86,11.36,69.86,54.81v40.33c0,6.82,2.56,9.94,6.53,9.94,4.26,0,7.39-2.56,7.39-12.21,0-1.71,1.13-2.27,2.84-2.27C1453.17,195.05,1454,195.61,1454,197.32Zm-75.26-21V162.78l-2.27.46c-12.56,2.5-18.24,4.51-22.81,9.06-3.86,3.83-5,10-5,17.35,0,11.93,3.4,20.16,11.36,20.16C1369.67,209.81,1378.76,196.75,1378.76,176.3Z"/></svg>